<svg width="48" height="24" viewBox="0 0 48 24" fill="none" xmlns="http://www.w3.org/2000/svg">
<g clip-path="url(#clip0_16269_1527)">
<g filter="url(#filter0_i_16269_1527)">
<path d="M0 12C0 5.37258 5.37258 0 12 0H36C42.6274 0 48 5.37258 48 12C48 18.6274 42.6274 24 36 24H12C5.37258 24 0 18.6274 0 12Z" fill="#0D7BF2"/>
</g>
<g clip-path="url(#clip1_16269_1527)">
<path d="M8.24068 6.5166C7.05315 7.55694 6.2067 8.97997 5.89197 10.5942C5.82902 10.9171 5.79755 11.0785 5.89819 11.2009C5.99882 11.3233 6.17362 11.3233 6.52321 11.3233H8.99653C9.29931 11.3233 9.4507 11.3233 9.54719 11.2337C9.64368 11.1441 9.65545 10.9886 9.679 10.6775C9.74281 9.83472 9.86685 9.03849 10.0421 8.31802L8.24068 6.5166Z" fill="#1A3293"/>
<path d="M11.1826 9.45855C11.1183 9.82978 11.0674 10.2213 11.0319 10.6291C11.0039 10.9498 10.99 11.1102 11.0897 11.2191C11.1894 11.3281 11.3551 11.3281 11.6865 11.3281H13.0521L11.1826 9.45855Z" fill="#1A3293"/>
<path d="M14.3959 12.6718L14.9777 13.2536C14.889 14.3549 14.6973 15.4718 14.2833 16.5011C14.0576 17.0621 13.8058 17.4711 13.5608 17.7288C13.3171 17.985 13.1273 18.0465 12.9998 18.0465C12.8723 18.0465 12.6825 17.985 12.4388 17.7288C12.1938 17.4711 11.942 17.0621 11.7163 16.5011C11.3851 15.6776 11.1388 14.598 11.0319 13.3707C11.0039 13.05 10.99 12.8896 11.0897 12.7807C11.1894 12.6717 11.3551 12.6717 11.6865 12.6717C12.5896 12.6717 13.4928 12.6694 14.3959 12.6718Z" fill="#1A3293"/>
<path d="M16.1906 14.4665L18.4802 16.7562C17.4816 17.9155 16.1243 18.7546 14.5816 19.0997C14.3132 19.1597 14.179 19.1897 14.1548 19.1451C14.1307 19.1005 14.2362 18.9973 14.4474 18.7908C14.9422 18.307 15.2762 17.6724 15.5299 17.0357C15.8218 16.3026 16.0475 15.4289 16.1906 14.4665Z" fill="#1A3293"/>
<path d="M6.52323 12.6765H8.99653C9.2993 12.6765 9.4507 12.6765 9.54719 12.7661C9.64368 12.8557 9.65545 13.0112 9.679 13.3223C9.78614 14.7374 10.0631 16.0213 10.4672 17.0357C10.7206 17.6721 11.0544 18.3063 11.5488 18.79C11.7599 18.9965 11.8654 19.0998 11.8413 19.1444C11.8171 19.1891 11.6829 19.159 11.4144 19.0988C8.62543 18.4733 6.44324 16.2327 5.89199 13.4055C5.82904 13.0827 5.79756 12.9212 5.8982 12.7989C5.99884 12.6765 6.17364 12.6765 6.52323 12.6765Z" fill="#1A3293"/>
<path d="M14.8667 11.2577L11.5539 7.94492C11.6054 7.78931 11.6597 7.64068 11.7164 7.49958C11.9421 6.93852 12.1939 6.52957 12.4389 6.27187C12.6826 6.01559 12.8724 5.95411 12.9999 5.95411C13.1274 5.95411 13.3172 6.01559 13.5609 6.27187C13.806 6.52957 14.0578 6.93852 14.2834 7.49958C14.6146 8.32299 14.8609 9.40266 14.9679 10.63C14.9958 10.9506 15.0098 11.111 14.91 11.2199C14.8968 11.2344 14.8825 11.2469 14.8667 11.2577Z" fill="#1A3293"/>
<path d="M19.2642 15.6552L16.4156 12.8066C16.4257 12.792 16.4371 12.7789 16.45 12.7669C16.5464 12.6773 16.6978 12.6773 17.0006 12.6773H19.477C19.8266 12.6773 20.0014 12.6773 20.102 12.7997C20.2027 12.9221 20.1712 13.0835 20.1082 13.4064C19.9512 14.2115 19.662 14.969 19.2642 15.6552Z" fill="#1A3293"/>
<path d="M10.498 6.88899L9.33472 5.72571C9.97208 5.34945 10.6718 5.06831 11.4146 4.90173C11.6831 4.84152 11.8174 4.81141 11.8416 4.85603C11.8657 4.90065 11.7602 5.00395 11.549 5.21055C11.0741 5.67523 10.7479 6.27963 10.498 6.88899Z" fill="#1A3293"/>
<path d="M20.102 11.2017C20.0014 11.3241 19.8266 11.3241 19.477 11.3241H17.0006C16.6978 11.3241 16.5464 11.3241 16.45 11.2345C16.3535 11.1449 16.3417 10.9894 16.3181 10.6784C16.211 9.2632 15.934 7.97933 15.53 6.96495C15.2764 6.32818 14.9423 5.69352 14.4475 5.20974C14.2362 5.00325 14.1306 4.9 14.1548 4.85538C14.1789 4.81075 14.3132 4.84078 14.5817 4.90083C17.3727 5.52502 19.5568 7.76645 20.1082 10.5951C20.1712 10.9179 20.2027 11.0794 20.102 11.2017Z" fill="#1A3293"/>
<path fill-rule="evenodd" clip-rule="evenodd" d="M5.86201 4.86323C6.12236 4.60288 6.54447 4.60288 6.80482 4.86323L20.1384 18.1969C20.3988 18.4572 20.3988 18.8793 20.1384 19.1397C19.8781 19.4 19.456 19.4 19.1956 19.1397L5.86201 5.80604C5.60166 5.54569 5.60166 5.12358 5.86201 4.86323Z" fill="#1A3293"/>
</g>
<g filter="url(#filter1_dd_16269_1527)">
<circle cx="36" cy="12" r="10" fill="white"/>
</g>
<circle cx="36.0001" cy="12" r="4" fill="#0D7BF2"/>
</g>
<defs>
<filter id="filter0_i_16269_1527" x="0" y="0" width="48" height="25" filterUnits="userSpaceOnUse" color-interpolation-filters="sRGB">
<feFlood flood-opacity="0" result="BackgroundImageFix"/>
<feBlend mode="normal" in="SourceGraphic" in2="BackgroundImageFix" result="shape"/>
<feColorMatrix in="SourceAlpha" type="matrix" values="0 0 0 0 0 0 0 0 0 0 0 0 0 0 0 0 0 0 127 0" result="hardAlpha"/>
<feMorphology radius="2" operator="dilate" in="SourceAlpha" result="effect1_innerShadow_16269_1527"/>
<feOffset dy="1"/>
<feGaussianBlur stdDeviation="4"/>
<feComposite in2="hardAlpha" operator="arithmetic" k2="-1" k3="1"/>
<feColorMatrix type="matrix" values="0 0 0 0 0 0 0 0 0 0 0 0 0 0 0 0 0 0 0.25 0"/>
<feBlend mode="normal" in2="shape" result="effect1_innerShadow_16269_1527"/>
</filter>
<filter id="filter1_dd_16269_1527" x="12.6667" y="-4.66667" width="46.6667" height="46.6667" filterUnits="userSpaceOnUse" color-interpolation-filters="sRGB">
<feFlood flood-opacity="0" result="BackgroundImageFix"/>
<feColorMatrix in="SourceAlpha" type="matrix" values="0 0 0 0 0 0 0 0 0 0 0 0 0 0 0 0 0 0 127 0" result="hardAlpha"/>
<feOffset dy="3.33333"/>
<feGaussianBlur stdDeviation="3.33333"/>
<feColorMatrix type="matrix" values="0 0 0 0 0.054902 0 0 0 0 0.0705882 0 0 0 0 0.105882 0 0 0 0.08 0"/>
<feBlend mode="normal" in2="BackgroundImageFix" result="effect1_dropShadow_16269_1527"/>
<feColorMatrix in="SourceAlpha" type="matrix" values="0 0 0 0 0 0 0 0 0 0 0 0 0 0 0 0 0 0 127 0" result="hardAlpha"/>
<feOffset dy="6.66667"/>
<feGaussianBlur stdDeviation="6.66667"/>
<feColorMatrix type="matrix" values="0 0 0 0 0.105882 0 0 0 0 0.109804 0 0 0 0 0.113725 0 0 0 0.06 0"/>
<feBlend mode="normal" in2="effect1_dropShadow_16269_1527" result="effect2_dropShadow_16269_1527"/>
<feBlend mode="normal" in="SourceGraphic" in2="effect2_dropShadow_16269_1527" result="shape"/>
</filter>
<clipPath id="clip0_16269_1527">
<rect width="48" height="24" rx="12" fill="white"/>
</clipPath>
<clipPath id="clip1_16269_1527">
<rect width="16" height="16" fill="white" transform="translate(5 4)"/>
</clipPath>
</defs>
</svg>
